<svg width="55" height="34" viewBox="0 0 55 34" fill="none" xmlns="http://www.w3.org/2000/svg">
<path d="M23.6051 16.576C25.6531 17.056 27.2371 18.048 28.3571 19.552C29.5091 21.024 30.0851 22.736 30.0851 24.688C30.0851 27.664 29.0931 29.968 27.1091 31.6C25.1571 33.2 22.3411 34 18.6611 34H0.853125V0.0159998H18.1811C21.6371 0.0159998 24.3571 0.768 26.3411 2.272C28.3251 3.776 29.3171 5.968 29.3171 8.848C29.3171 10.832 28.7891 12.512 27.7331 13.888C26.7091 15.232 25.3331 16.128 23.6051 16.576ZM11.5091 13.264H15.6371C16.5971 13.264 17.3011 13.072 17.7491 12.688C18.2291 12.304 18.4691 11.712 18.4691 10.912C18.4691 10.08 18.2291 9.472 17.7491 9.088C17.3011 8.672 16.5971 8.464 15.6371 8.464H11.5091V13.264ZM16.3571 25.456C17.3171 25.456 18.0211 25.28 18.4691 24.928C18.9491 24.544 19.1891 23.936 19.1891 23.104C19.1891 21.472 18.2451 20.656 16.3571 20.656H11.5091V25.456H16.3571ZM44.3216 25.936H54.5936V34H33.6656V0.0159998H44.3216V25.936Z" fill="url(#paint0_linear_33_30)"/>
<defs>
<linearGradient id="paint0_linear_33_30" x1="-13.5" y1="-5" x2="63" y2="39" gradientUnits="userSpaceOnUse">
<stop stop-color="#00ABFF"/>
<stop offset="1" stop-color="#00ECFF"/>
</linearGradient>
</defs>
</svg>
